<?xml version="1.0" standalone="no"?>
<!DOCTYPE svg PUBLIC "-//W3C//DTD SVG 20010904//EN"
 "http://www.w3.org/TR/2001/REC-SVG-20010904/DTD/svg10.dtd">
<svg version="1.0" xmlns="http://www.w3.org/2000/svg"
 width="700.000000pt" height="700.000000pt" viewBox="0 0 700.000000 700.000000"
 preserveAspectRatio="xMidYMid meet">
<metadata>
Created by potrace 1.14, written by Peter Selinger 2001-2017
</metadata>
<g transform="translate(0.000000,700.000000) scale(0.100000,-0.100000)"
fill="#000000" stroke="none">
<path d="M3338 6995 c-1 -1 -30 -6 -63 -9 -139 -13 -375 -71 -480 -116 -11 -5
-52 -22 -91 -39 -39 -17 -99 -46 -134 -66 -34 -19 -64 -35 -66 -35 -4 0 -108
-66 -129 -83 -346 -263 -553 -522 -698 -872 -26 -63 -82 -235 -92 -279 -5 -26
-7 -35 -25 -131 -24 -128 -33 -382 -19 -525 58 -570 359 -1087 824 -1416 79
-56 74 -53 190 -118 223 -125 497 -210 755 -233 140 -13 374 -7 480 11 14 3
41 7 60 10 138 20 388 104 543 182 227 115 472 313 634 514 214 265 360 591
417 930 21 124 28 387 13 527 -31 295 -146 613 -315 867 -132 199 -262 336
-482 509 -80 63 -309 190 -430 237 -233 92 -432 130 -702 135 -102 2 -188 2
-190 0z"/>
<path d="M2076 2623 c-1 -1 -38 -5 -81 -8 -44 -3 -107 -10 -140 -16 -33 -5
-69 -12 -80 -14 -179 -30 -431 -119 -612 -216 -85 -45 -272 -164 -283 -179 -3
-4 -12 -11 -21 -16 -34 -18 -136 -111 -237 -212 -315 -320 -537 -765 -597
-1198 -3 -22 -8 -55 -11 -74 -13 -79 -13 -296 0 -350 38 -162 156 -285 311
-325 53 -13 399 -15 3167 -15 2236 0 3122 3 3160 11 155 32 286 163 323 320
30 131 -8 546 -64 692 -6 15 -9 27 -7 27 5 0 -42 140 -74 220 -30 76 -108 231
-160 315 -240 394 -623 715 -1050 883 -202 79 -389 123 -620 148 -56 6 -2918
13 -2924 7z"/>
</g>
</svg>
